# AST/ASF file generated using VICON BodyLanguage
# -----------------------------------------------
:version 1.10
:name VICON
:units
  mass 1.0
  length 0.45
  angle deg
:documentation
   .ast/.asf automatically generated from VICON data using
   VICON BodyBuilder and BodyLanguage model FoxedUp or BRILLIANT.MOD
:root
   order TX TY TZ RX RY RZ
   axis XYZ
   position 0 0 0  
   orientation 0 0 0 
:bonedata
  begin
     id 1 
     name lhipjoint
     direction 0.573633 -0.743009 0.344793 
     length 2.46257 
     axis 0 0 0  XYZ
  end
  begin
     id 2 
     name lfemur
     direction 0.34202 -0.939693 0  
     length 7.3842  
     axis 0 0 20  XYZ
    dof rx ry rz
    limits (-160.0 20.0)
           (-70.0 70.0)
           (-60.0 70.0)
  end
  begin
     id 3 
     name ltibia
     direction 0.34202 -0.939693 0   
     length 7.50407   
     axis 0 0 20   XYZ
    dof rx
    limits (-10.0 170.0)
  end
  begin
     id 4 
     name lfoot
     direction 0.110749 -0.304281 0.946123   
     length 1.95925   
     axis -90 7.62852e-016 20   XYZ
    dof rx rz
    limits (-45.0 90.0)
           (-70.0 20.0)
  end
  begin
     id 5 
     name ltoes
     direction 1.53554e-011 -4.21843e-011 1   
     length 0.978318   
     axis -90 7.62852e-016 20   XYZ
    dof rx
    limits (-90.0 20.0)
  end
  begin
     id 6 
     name rhipjoint
     direction -0.488109 -0.791693 0.367385   
     length 2.31113  
     axis 0 0 0  XYZ 
  end
  begin
     id 7 
     name rfemur
     direction -0.34202 -0.939693 0   
     length 7.40965   
     axis 0 0 -20   XYZ
    dof rx ry rz
    limits (-160.0 20.0)
           (-70.0 70.0)
           (-70.0 60.0)
  end
  begin
     id 8 
     name rtibia
     direction -0.34202 -0.939693 0   
     length 7.55548   
     axis 0 0 -20   XYZ
    dof rx
    limits (-10.0 170.0)
 end
 begin
     id 9 
     name rfoot
     direction -0.127594 -0.350561 0.927808   
     length 2.07199  
     axis -90 -7.62852e-016 -20   XYZ
    dof rx rz
    limits (-45.0 90.0)
           (-20.0 70.0)
  end
  begin
     id 10 
     name rtoes
     direction -1.53542e-011 -4.21909e-011 1   
     length 1.02667   
     axis -90 -7.62852e-016 -20   XYZ
    dof rx
    limits (-90.0 20.0)
  end
  begin
     id 11 
     name lowerback
     direction -0.0103342 0.997298 -0.0727278   
     length 2.02836   
     axis 0 0 0   XYZ
    dof rx ry rz
    limits (-20.0 45.0)
           (-30.0 30.0)
           (-30.0 30.0)
  end
  begin
     id 12 
     name upperback
     direction 0.0171146 0.999786 -0.011606   
     length 2.03179   
     axis 0 0 0   XYZ
    dof rx ry rz
    limits (-20.0 45.0)
           (-30.0 30.0)
           (-30.0 30.0)
  end
  begin
     id 13 
     name thorax
     direction 0.0216927 0.999513 0.0224343   
     length 2.03882   
     axis 0 0 0   XYZ
    dof rx ry rz
    limits (-20.0 45.0)
           (-30.0 30.0)
           (-30.0 30.0)
  end
  begin
     id 14 
     name lowerneck
     direction 0.000989287 0.993907 0.110221   
     length 1.75428   
     axis 0 0 0   XYZ
    dof rx ry rz
    limits (-20.0 45.0)
           (-30.0 30.0)
           (-30.0 30.0)
  end
  begin
     id 15 
     name upperneck
     direction -0.0172474 0.994813 -0.100253   
     length 1.77058   
     axis 0 0 0   XYZ
    dof rx ry rz
    limits (-20.0 45.0)
           (-30.0 30.0)
           (-30.0 30.0)
  end
  begin
     id 16
     name head
     direction -0.00486455 0.99894 -0.0457663  
     length 1.77427  
     axis 0 0 0   XYZ
    dof rx ry rz
    limits (-20.0 45.0)
           (-30.0 30.0)
           (-30.0 30.0)
  end
  begin
     id 17 
     name lclavicle
     direction 0.927314 0.333734 -0.169441  
     length 3.97584  
     axis 0 0 0   XYZ
    dof ry rz
    limits (-20.0 10.0)
           (0.0 20.0)
  end
  begin
     id 18 
     name lhumerus
     direction 1 -4.48965e-011 -3.25313e-028   
     length 4.76468   
     axis 180 -30 -90   XYZ
    dof rx ry rz
    limits (-60.0 90.0)
           (-90.0 90.0)
           (-90.0 90.0)
  end
  begin
     id 19
     name lradius
     direction 1 -4.48969e-011 -2.8465e-028   
     length 3.52712   
     axis -180 -30 -90   XYZ
    dof rx
    limits (-10.0 170.0)
  end
  begin
     id 20
     name lwrist
     direction 1 -4.4896e-011 -7.78665e-028   
     length 1.76356   
     axis 1.91374e-015 90 90   XYZ
    dof ry
    limits (-180.0 0.0)
 end
  begin
     id 21 
     name lhand
     direction 1 -4.48959e-011 -1.55733e-027   
     length 0.859564   
     axis 9.9371e-016 90 90   XYZ
    dof rx rz
    limits (-90.0 90.0)
           (-45.0 45.0)
  end
  begin
     id 22 
     name lfingers
     direction 1 -4.48965e-011 -3.11466e-027   
     length 0.693002   
     axis 1.98742e-015 90 90   XYZ
    dof rx
    limits (0.0 90.0)
  end
  begin
     id 23
     name lthumb
     direction 0.707107 -6.34948e-011 0.707107   
     length 0.995017   
     axis -90 45 2.85299e-015   XYZ
    dof rx rz
    limits (-45.0 45.0)
           (-45.0 45.0)
  end
  begin
     id 24 
     name rclavicle
     direction -0.899388 0.348209 -0.264294   
     length 3.68366  
     axis 0 0 0   XYZ 
    dof ry rz
    limits (-10.0 20.0)
           (-20.0 0.0)
  end
  begin
     id 25 
     name rhumerus
     direction -1 -4.48965e-011 -3.01536e-027  
     length 4.90577   
     axis 180 30 90   XYZ
    dof rx ry rz
    limits (-90.0 60.0)
           (-90.0 90.0)
           (-90.0 90.0)
  end
  begin
     id 26 
     name rradius
     direction -1 -4.48966e-011 3.93291e-027   
     length 3.42692   
     axis -180 30 90   XYZ
    dof rx
    limits (-10.0 170.0)
  end
  begin
     id 27 
     name rwrist
     direction -1 -4.48969e-011 -7.78665e-028   
     length 1.71346   
     axis 1.91374e-015 -90 -90   XYZ
    dof ry
    limits (-180.0 0.0)
  end
  begin
     id 28
     name rhand
     direction -1 -4.48967e-011 -1.55733e-027   
     length 0.740957   
     axis 9.9371e-016 -90 -90   XYZ
    dof rx rz
    limits (-90.0 90.0)
           (-45.0 45.0)
  end
  begin
     id 29
     name rfingers
     direction -1 -4.48949e-011 -3.11466e-027   
     length 0.597378   
     axis 1.98742e-015 -90 -90   XYZ
    dof rx
    limits (0.0 90.0)
  end
  begin
     id 30
     name rthumb
     direction -0.707107 -6.34931e-011 0.707107   
     length 0.857719   
     axis -90 -45 -2.85299e-015   XYZ
    dof rx rz
    limits (-45.0 45.0)
           (-45.0 45.0)
  end
:hierarchy
  begin
    root lhipjoint rhipjoint lowerback
    lhipjoint lfemur
    lfemur ltibia
    ltibia lfoot
    lfoot ltoes
    rhipjoint rfemur
    rfemur rtibia
    rtibia rfoot
    rfoot rtoes
    lowerback upperback
    upperback thorax
    thorax lowerneck lclavicle rclavicle
    lowerneck upperneck
    upperneck head
    lclavicle lhumerus
    lhumerus lradius
    lradius lwrist
    lwrist lhand lthumb
    lhand lfingers
    rclavicle rhumerus
    rhumerus rradius
    rradius rwrist
    rwrist rhand rthumb
    rhand rfingers
  end

#!OML:ASF E:\I on waltz\AllaLogoMonkeySwing\Project 1\Capture day 1\Session 1\Subject1.ASF
:FULLY-SPECIFIED
:DEGREES
96
root 1.2428 8.94864 -1.68515 -28.5077 -1.12308 -0.320675
lowerback 35.3315 1.77896 -1.8982
upperback 11.451 1.72886 1.73671
thorax -5.28339 0.748461 2.21575
lowerneck -12.3099 0.87628 -1.78201
upperneck -1.12972 1.39729 0.653071
head 1.72214 0.719366 0.585455
rclavicle 1.14301e-015 -2.38542e-015
rhumerus -22.0406 -4.58367 -87.0204
rradius 85.6646
rwrist -0.239329
rhand -14.6101 -35.9105
rfingers 7.12502
rthumb 11.5408 -65.5728
lclavicle 1.14301e-015 -2.38542e-015
lhumerus -28.5859 3.59369 90.794
lradius 90.5337
lwrist 13.7661
lhand -20.5656 -24.1397
lfingers 7.12502
lthumb 5.79373 5.76113
rfemur -68.2507 -18.5757 22.9345
rtibia 115.767
rfoot -19.7199 0.532971
rtoes 27.0533
lfemur -65.5081 24.1431 -15.1707
ltibia 116.508
lfoot -28.5327 -15.5249
ltoes -8.61227
97
root 1.24444 8.93929 -1.70589 -28.8363 -1.51589 -0.975527
lowerback 34.9438 1.57356 -1.10606
upperback 11.3528 1.76038 1.96462
thorax -5.24786 0.773709 2.03026
lowerneck -12.4961 0.963448 -1.59033
upperneck -1.03683 1.49836 0.329926
head 1.78753 0.759574 0.457298
rclavicle 1.8487e-014 2.78299e-015
rhumerus -22.6385 -3.71611 -87.4259
rradius 86.5899
rwrist 0.109335
rhand -14.8238 -35.1526
rfingers 7.12502
rthumb 11.3347 -64.8263
lclavicle 1.8487e-014 2.78299e-015
lhumerus -29.0857 2.77456 91.3927
lradius 91.0623
lwrist 12.9703
lhand -20.5253 -24.895
lfingers 7.12502
lthumb 5.83265 5.00467
rfemur -67.8213 -18.2136 23.7229
rtibia 115.569
rfoot -19.5683 0.217798
rtoes 27.1531
lfemur -65.3114 24.6538 -14.1323
ltibia 116.584
lfoot -28.4399 -15.952
ltoes -9.97576
98
root 1.24563 8.92945 -1.72231 -29.1799 -1.62256 -1.24969
lowerback 34.5996 1.44848 -0.70713
upperback 11.2368 1.75081 2.09221
thorax -5.24716 0.775412 1.95989
lowerneck -12.8808 0.950472 -1.44918
upperneck -0.679246 1.47645 0.0566791
head 1.9788 0.737798 0.350698
rclavicle 1.10325e-014 1.19271e-014
rhumerus -23.3185 -2.90061 -87.8687
rradius 87.4838
rwrist 0.303765
rhand -14.877 -34.8367
rfingers 7.12502
rthumb 11.2834 -64.5132
lclavicle 1.10325e-014 1.19271e-014
lhumerus -29.5772 1.76465 92.0766
lradius 91.5101
lwrist 12.2967
lhand -20.869 -25.5371
lfingers 7.12502
lthumb 5.50081 4.37146
rfemur -67.4472 -18.1543 23.9611
rtibia 115.452
rfoot -19.4454 0.083303
rtoes 27.1333
lfemur -64.998 24.8287 -13.6524
ltibia 116.604
lfoot -28.4229 -16.2616
ltoes -10.3692
99
root 1.24934 8.92108 -1.73341 -29.438 -1.68993 -1.5232
lowerback 34.2037 1.30751 -0.312903
upperback 11.082 1.71792 2.22261
thorax -5.26722 0.765927 1.90262
lowerneck -13.104 0.989932 -1.32207
upperneck -0.379469 1.52463 -0.222716
head 2.12241 0.750484 0.245825
rclavicle -4.02539e-015 3.97569e-015
rhumerus -24.1138 -1.97016 -88.341
rradius 88.373
rwrist 0.410824
rhand -14.9835 -35.0817
rfingers 7.12502
rthumb 11.1807 -64.7638
lclavicle -4.02539e-015 3.97569e-015
lhumerus -30.1261 0.686107 92.8589
lradius 91.9471
lwrist 11.5864
lhand -21.573 -26.2075
lfingers 7.12502
lthumb 4.82108 3.71761
rfemur -67.1488 -18.1669 24.1929
rtibia 115.392
rfoot -19.4028 -0.0625411
rtoes 27.038
lfemur -64.7873 24.9556 -13.252
ltibia 116.627
lfoot -28.4403 -16.5402
ltoes -10.3288
100
root 1.25388 8.91437 -1.74004 -29.5933 -1.75331 -1.68957
lowerback 33.726 1.19846 -0.0178193
upperback 10.8894 1.6872 2.31779
thorax -5.29759 0.756701 1.86019
lowerneck -13.4384 1.0293 -1.20848
upperneck 0.181498 1.57928 -0.49124
head 2.3763 0.763915 0.148912
rclavicle 1.98785e-015 1.63003e-014
rhumerus -24.9233 -0.888057 -88.8296
rradius 89.0467
rwrist 0.45992
rhand -15.2248 -35.312
rfingers 7.12502
rthumb 10.9479 -65.0066
lclavicle 1.98785e-015 1.63003e-014
lhumerus -30.764 -0.447853 93.6839
lradius 92.2986
lwrist 10.6286
lhand -22.492 -26.9535
lfingers 7.12502
lthumb 3.93371 2.98991
rfemur -67.0012 -18.1473 24.3377
rtibia 115.373
rfoot -19.3278 -0.127555
rtoes 27.209
lfemur -64.692 25.1284 -13.0127
ltibia 116.664
lfoot -28.4386 -16.7042
ltoes -10.2852
